<mxfile host="app.diagrams.net" modified="2021-10-26T16:23:13.898Z" agent="5.0 (Windows NT 10.0; Win64; x64) AppleWebKit/537.36 (KHTML, like Gecko) Chrome/95.0.4638.54 Safari/537.36" etag="sxJvDJRukIIUgBn64WYy" version="15.5.9" type="gitlab">
  <diagram id="B_qBXVIk8Y8GbyoN2Z_P" name="Page-1">
    <mxGraphModel dx="1422" dy="804" grid="1" gridSize="10" guides="1" tooltips="1" connect="1" arrows="1" fold="1" page="1" pageScale="1" pageWidth="827" pageHeight="1169" math="0" shadow="0">
      <root>
        <mxCell id="0" />
        <mxCell id="1" parent="0" />
        <mxCell id="rovdvrnVcOGYkZz0sEue-40" style="edgeStyle=orthogonalEdgeStyle;rounded=0;orthogonalLoop=1;jettySize=auto;html=1;exitX=0.5;exitY=0.5;exitDx=0;exitDy=0;exitPerimeter=0;entryX=0.5;entryY=0;entryDx=0;entryDy=0;endArrow=classic;endFill=1;" parent="1" source="rovdvrnVcOGYkZz0sEue-8" target="rovdvrnVcOGYkZz0sEue-38" edge="1">
          <mxGeometry relative="1" as="geometry">
            <Array as="points">
              <mxPoint x="306" y="210" />
            </Array>
          </mxGeometry>
        </mxCell>
        <mxCell id="rovdvrnVcOGYkZz0sEue-51" style="edgeStyle=orthogonalEdgeStyle;rounded=0;orthogonalLoop=1;jettySize=auto;html=1;exitX=0.75;exitY=0.1;exitDx=0;exitDy=0;exitPerimeter=0;entryX=0.5;entryY=0;entryDx=0;entryDy=0;endArrow=classic;endFill=1;" parent="1" source="rovdvrnVcOGYkZz0sEue-8" target="rovdvrnVcOGYkZz0sEue-34" edge="1">
          <mxGeometry relative="1" as="geometry" />
        </mxCell>
        <mxCell id="rb_3qHRuBO5IrLHfp7AS-1" style="edgeStyle=orthogonalEdgeStyle;rounded=0;orthogonalLoop=1;jettySize=auto;html=1;exitX=0.5;exitY=0;exitDx=0;exitDy=0;exitPerimeter=0;entryX=0.5;entryY=1;entryDx=0;entryDy=0;" edge="1" parent="1" source="rovdvrnVcOGYkZz0sEue-8" target="rb_3qHRuBO5IrLHfp7AS-2">
          <mxGeometry relative="1" as="geometry">
            <mxPoint x="300" y="140" as="targetPoint" />
            <Array as="points">
              <mxPoint x="225" y="170" />
              <mxPoint x="291" y="170" />
            </Array>
          </mxGeometry>
        </mxCell>
        <mxCell id="rovdvrnVcOGYkZz0sEue-8" value="Admin" style="shape=umlActor;verticalLabelPosition=bottom;verticalAlign=top;html=1;outlineConnect=0;" parent="1" vertex="1">
          <mxGeometry x="210" y="180" width="30" height="60" as="geometry" />
        </mxCell>
        <mxCell id="rovdvrnVcOGYkZz0sEue-19" style="edgeStyle=orthogonalEdgeStyle;rounded=0;orthogonalLoop=1;jettySize=auto;html=1;exitX=0.5;exitY=0;exitDx=0;exitDy=0;exitPerimeter=0;entryX=0.997;entryY=0.603;entryDx=0;entryDy=0;entryPerimeter=0;" parent="1" source="rovdvrnVcOGYkZz0sEue-9" target="rovdvrnVcOGYkZz0sEue-20" edge="1">
          <mxGeometry relative="1" as="geometry">
            <mxPoint x="301" y="490" as="targetPoint" />
            <Array as="points">
              <mxPoint x="236" y="440" />
            </Array>
          </mxGeometry>
        </mxCell>
        <mxCell id="rovdvrnVcOGYkZz0sEue-9" value="Sanker" style="shape=umlActor;verticalLabelPosition=bottom;verticalAlign=top;html=1;outlineConnect=0;" parent="1" vertex="1">
          <mxGeometry x="221" y="470" width="30" height="60" as="geometry" />
        </mxCell>
        <mxCell id="rovdvrnVcOGYkZz0sEue-16" style="edgeStyle=orthogonalEdgeStyle;rounded=0;orthogonalLoop=1;jettySize=auto;html=1;exitX=0.5;exitY=0;exitDx=0;exitDy=0;exitPerimeter=0;entryX=1;entryY=0.5;entryDx=0;entryDy=0;" parent="1" source="rovdvrnVcOGYkZz0sEue-10" target="rovdvrnVcOGYkZz0sEue-15" edge="1">
          <mxGeometry relative="1" as="geometry" />
        </mxCell>
        <mxCell id="rovdvrnVcOGYkZz0sEue-18" style="edgeStyle=orthogonalEdgeStyle;rounded=0;orthogonalLoop=1;jettySize=auto;html=1;exitX=0.5;exitY=0.5;exitDx=0;exitDy=0;exitPerimeter=0;entryX=1;entryY=0.5;entryDx=0;entryDy=0;" parent="1" source="rovdvrnVcOGYkZz0sEue-10" target="rovdvrnVcOGYkZz0sEue-17" edge="1">
          <mxGeometry relative="1" as="geometry">
            <Array as="points">
              <mxPoint x="176" y="325" />
            </Array>
          </mxGeometry>
        </mxCell>
        <mxCell id="rovdvrnVcOGYkZz0sEue-31" style="edgeStyle=orthogonalEdgeStyle;rounded=0;orthogonalLoop=1;jettySize=auto;html=1;exitX=0.75;exitY=0.1;exitDx=0;exitDy=0;exitPerimeter=0;endArrow=classic;endFill=1;entryX=1;entryY=0.5;entryDx=0;entryDy=0;" parent="1" source="rovdvrnVcOGYkZz0sEue-10" target="rovdvrnVcOGYkZz0sEue-30" edge="1">
          <mxGeometry relative="1" as="geometry">
            <mxPoint x="181" y="200" as="targetPoint" />
            <Array as="points">
              <mxPoint x="184" y="215" />
            </Array>
          </mxGeometry>
        </mxCell>
        <mxCell id="rovdvrnVcOGYkZz0sEue-10" value="Konobar" style="shape=umlActor;verticalLabelPosition=bottom;verticalAlign=top;html=1;outlineConnect=0;" parent="1" vertex="1">
          <mxGeometry x="161" y="310" width="30" height="60" as="geometry" />
        </mxCell>
        <mxCell id="rovdvrnVcOGYkZz0sEue-22" style="edgeStyle=orthogonalEdgeStyle;rounded=0;orthogonalLoop=1;jettySize=auto;html=1;exitX=0.5;exitY=0.5;exitDx=0;exitDy=0;exitPerimeter=0;entryX=0.5;entryY=1;entryDx=0;entryDy=0;" parent="1" source="rovdvrnVcOGYkZz0sEue-11" target="rovdvrnVcOGYkZz0sEue-21" edge="1">
          <mxGeometry relative="1" as="geometry">
            <Array as="points">
              <mxPoint x="406" y="490" />
              <mxPoint x="406" y="490" />
            </Array>
          </mxGeometry>
        </mxCell>
        <mxCell id="rovdvrnVcOGYkZz0sEue-11" value="Kuvar" style="shape=umlActor;verticalLabelPosition=bottom;verticalAlign=top;html=1;outlineConnect=0;" parent="1" vertex="1">
          <mxGeometry x="336" y="460" width="30" height="60" as="geometry" />
        </mxCell>
        <mxCell id="rovdvrnVcOGYkZz0sEue-33" style="edgeStyle=orthogonalEdgeStyle;rounded=0;orthogonalLoop=1;jettySize=auto;html=1;exitX=0.5;exitY=0.5;exitDx=0;exitDy=0;exitPerimeter=0;entryX=0;entryY=0.5;entryDx=0;entryDy=0;endArrow=classic;endFill=1;" parent="1" source="rovdvrnVcOGYkZz0sEue-12" target="rovdvrnVcOGYkZz0sEue-32" edge="1">
          <mxGeometry relative="1" as="geometry">
            <Array as="points">
              <mxPoint x="481" y="350" />
              <mxPoint x="481" y="255" />
            </Array>
          </mxGeometry>
        </mxCell>
        <mxCell id="rovdvrnVcOGYkZz0sEue-36" style="edgeStyle=orthogonalEdgeStyle;rounded=0;orthogonalLoop=1;jettySize=auto;html=1;exitX=0;exitY=0.3333333333333333;exitDx=0;exitDy=0;exitPerimeter=0;entryX=0.5;entryY=1;entryDx=0;entryDy=0;endArrow=classic;endFill=1;" parent="1" source="rovdvrnVcOGYkZz0sEue-12" target="rovdvrnVcOGYkZz0sEue-34" edge="1">
          <mxGeometry relative="1" as="geometry">
            <Array as="points">
              <mxPoint x="441" y="340" />
              <mxPoint x="441" y="320" />
              <mxPoint x="371" y="320" />
            </Array>
          </mxGeometry>
        </mxCell>
        <mxCell id="rovdvrnVcOGYkZz0sEue-41" style="edgeStyle=orthogonalEdgeStyle;rounded=0;orthogonalLoop=1;jettySize=auto;html=1;exitX=0.5;exitY=0.5;exitDx=0;exitDy=0;exitPerimeter=0;entryX=1;entryY=0.5;entryDx=0;entryDy=0;endArrow=classic;endFill=1;" parent="1" source="rovdvrnVcOGYkZz0sEue-12" target="rovdvrnVcOGYkZz0sEue-38" edge="1">
          <mxGeometry relative="1" as="geometry" />
        </mxCell>
        <mxCell id="rovdvrnVcOGYkZz0sEue-42" style="edgeStyle=orthogonalEdgeStyle;rounded=0;orthogonalLoop=1;jettySize=auto;html=1;exitX=0.5;exitY=0;exitDx=0;exitDy=0;exitPerimeter=0;entryX=0;entryY=0.5;entryDx=0;entryDy=0;endArrow=classic;endFill=1;" parent="1" source="rovdvrnVcOGYkZz0sEue-12" target="rovdvrnVcOGYkZz0sEue-39" edge="1">
          <mxGeometry relative="1" as="geometry">
            <Array as="points">
              <mxPoint x="466" y="205" />
            </Array>
          </mxGeometry>
        </mxCell>
        <mxCell id="rovdvrnVcOGYkZz0sEue-46" style="edgeStyle=orthogonalEdgeStyle;rounded=0;orthogonalLoop=1;jettySize=auto;html=1;exitX=0.25;exitY=0.1;exitDx=0;exitDy=0;exitPerimeter=0;entryX=0;entryY=0.5;entryDx=0;entryDy=0;endArrow=classic;endFill=1;" parent="1" source="rovdvrnVcOGYkZz0sEue-12" target="rovdvrnVcOGYkZz0sEue-44" edge="1">
          <mxGeometry relative="1" as="geometry">
            <Array as="points">
              <mxPoint x="461" y="326" />
              <mxPoint x="461" y="145" />
            </Array>
          </mxGeometry>
        </mxCell>
        <mxCell id="rovdvrnVcOGYkZz0sEue-48" style="edgeStyle=orthogonalEdgeStyle;rounded=0;orthogonalLoop=1;jettySize=auto;html=1;exitX=0.25;exitY=0.1;exitDx=0;exitDy=0;exitPerimeter=0;entryX=0;entryY=0.5;entryDx=0;entryDy=0;endArrow=classic;endFill=1;" parent="1" source="rovdvrnVcOGYkZz0sEue-12" target="rovdvrnVcOGYkZz0sEue-37" edge="1">
          <mxGeometry relative="1" as="geometry">
            <Array as="points">
              <mxPoint x="451" y="326" />
              <mxPoint x="451" y="90" />
            </Array>
          </mxGeometry>
        </mxCell>
        <mxCell id="rovdvrnVcOGYkZz0sEue-49" style="edgeStyle=orthogonalEdgeStyle;rounded=0;orthogonalLoop=1;jettySize=auto;html=1;exitX=1;exitY=1;exitDx=0;exitDy=0;exitPerimeter=0;endArrow=classic;endFill=1;entryX=0;entryY=0.5;entryDx=0;entryDy=0;" parent="1" source="rovdvrnVcOGYkZz0sEue-12" target="rovdvrnVcOGYkZz0sEue-50" edge="1">
          <mxGeometry relative="1" as="geometry">
            <mxPoint x="541" y="380" as="targetPoint" />
            <Array as="points">
              <mxPoint x="491" y="380" />
              <mxPoint x="491" y="310" />
            </Array>
          </mxGeometry>
        </mxCell>
        <mxCell id="rovdvrnVcOGYkZz0sEue-12" value="Menadzer" style="shape=umlActor;verticalLabelPosition=bottom;verticalAlign=top;html=1;outlineConnect=0;" parent="1" vertex="1">
          <mxGeometry x="451" y="320" width="30" height="60" as="geometry" />
        </mxCell>
        <mxCell id="rovdvrnVcOGYkZz0sEue-24" style="edgeStyle=orthogonalEdgeStyle;rounded=0;orthogonalLoop=1;jettySize=auto;html=1;endArrow=block;endFill=0;exitX=0.75;exitY=0.1;exitDx=0;exitDy=0;exitPerimeter=0;" parent="1" source="rovdvrnVcOGYkZz0sEue-14" edge="1" target="rovdvrnVcOGYkZz0sEue-11">
          <mxGeometry relative="1" as="geometry">
            <mxPoint x="351" y="455" as="targetPoint" />
            <Array as="points">
              <mxPoint x="380" y="561" />
              <mxPoint x="380" y="510" />
            </Array>
            <mxPoint x="380" y="560" as="sourcePoint" />
          </mxGeometry>
        </mxCell>
        <mxCell id="rb_3qHRuBO5IrLHfp7AS-3" style="edgeStyle=orthogonalEdgeStyle;rounded=0;orthogonalLoop=1;jettySize=auto;html=1;exitX=0.25;exitY=0.1;exitDx=0;exitDy=0;exitPerimeter=0;entryX=0.633;entryY=1;entryDx=0;entryDy=0;entryPerimeter=0;" edge="1" parent="1" source="rovdvrnVcOGYkZz0sEue-14" target="rovdvrnVcOGYkZz0sEue-38">
          <mxGeometry relative="1" as="geometry">
            <Array as="points">
              <mxPoint x="318" y="561" />
            </Array>
          </mxGeometry>
        </mxCell>
        <mxCell id="rovdvrnVcOGYkZz0sEue-14" value="Glavni kuvar" style="shape=umlActor;verticalLabelPosition=bottom;verticalAlign=top;html=1;outlineConnect=0;" parent="1" vertex="1">
          <mxGeometry x="344" y="555" width="30" height="60" as="geometry" />
        </mxCell>
        <mxCell id="rovdvrnVcOGYkZz0sEue-15" value="CRUD porudzbine" style="ellipse;whiteSpace=wrap;html=1;" parent="1" vertex="1">
          <mxGeometry x="56" y="245" width="90" height="50" as="geometry" />
        </mxCell>
        <mxCell id="rovdvrnVcOGYkZz0sEue-17" value="Naplacivanje porudzbine" style="ellipse;whiteSpace=wrap;html=1;" parent="1" vertex="1">
          <mxGeometry x="58.5" y="300" width="90" height="50" as="geometry" />
        </mxCell>
        <mxCell id="rovdvrnVcOGYkZz0sEue-20" value="Potvrdjivanje porucenih pica" style="ellipse;whiteSpace=wrap;html=1;" parent="1" vertex="1">
          <mxGeometry x="111" y="410" width="100" height="50" as="geometry" />
        </mxCell>
        <mxCell id="rovdvrnVcOGYkZz0sEue-21" value="Potvrdjivanje porucenih jela" style="ellipse;whiteSpace=wrap;html=1;" parent="1" vertex="1">
          <mxGeometry x="396" y="420" width="100" height="50" as="geometry" />
        </mxCell>
        <mxCell id="rovdvrnVcOGYkZz0sEue-27" style="edgeStyle=orthogonalEdgeStyle;rounded=0;orthogonalLoop=1;jettySize=auto;html=1;exitX=1;exitY=0.5;exitDx=0;exitDy=0;endArrow=classic;endFill=1;" parent="1" source="rovdvrnVcOGYkZz0sEue-26" target="rovdvrnVcOGYkZz0sEue-14" edge="1">
          <mxGeometry relative="1" as="geometry">
            <Array as="points">
              <mxPoint x="315" y="620" />
              <mxPoint x="315" y="570" />
            </Array>
          </mxGeometry>
        </mxCell>
        <mxCell id="rovdvrnVcOGYkZz0sEue-26" value="Predlaganje novih jela" style="ellipse;whiteSpace=wrap;html=1;" parent="1" vertex="1">
          <mxGeometry x="210" y="595" width="90" height="50" as="geometry" />
        </mxCell>
        <mxCell id="rovdvrnVcOGYkZz0sEue-29" style="edgeStyle=orthogonalEdgeStyle;rounded=0;orthogonalLoop=1;jettySize=auto;html=1;exitX=1;exitY=0.5;exitDx=0;exitDy=0;endArrow=classic;endFill=1;entryX=0.5;entryY=0.5;entryDx=0;entryDy=0;entryPerimeter=0;" parent="1" source="rovdvrnVcOGYkZz0sEue-28" target="rovdvrnVcOGYkZz0sEue-14" edge="1">
          <mxGeometry relative="1" as="geometry">
            <Array as="points">
              <mxPoint x="325" y="680" />
              <mxPoint x="325" y="585" />
            </Array>
          </mxGeometry>
        </mxCell>
        <mxCell id="rovdvrnVcOGYkZz0sEue-28" value="Izmena postojecih jela" style="ellipse;whiteSpace=wrap;html=1;" parent="1" vertex="1">
          <mxGeometry x="210" y="655" width="90" height="50" as="geometry" />
        </mxCell>
        <mxCell id="rovdvrnVcOGYkZz0sEue-30" value="Preuzimanje jela/pica" style="ellipse;whiteSpace=wrap;html=1;" parent="1" vertex="1">
          <mxGeometry x="51" y="190" width="95" height="50" as="geometry" />
        </mxCell>
        <mxCell id="rovdvrnVcOGYkZz0sEue-32" value="CRUD cenovnik" style="ellipse;whiteSpace=wrap;html=1;" parent="1" vertex="1">
          <mxGeometry x="506" y="235" width="80" height="40" as="geometry" />
        </mxCell>
        <mxCell id="rovdvrnVcOGYkZz0sEue-34" value="CRUD zaposleni" style="ellipse;whiteSpace=wrap;html=1;" parent="1" vertex="1">
          <mxGeometry x="331" y="250" width="80" height="40" as="geometry" />
        </mxCell>
        <mxCell id="rovdvrnVcOGYkZz0sEue-37" value="CRUD picovnik" style="ellipse;whiteSpace=wrap;html=1;" parent="1" vertex="1">
          <mxGeometry x="496" y="70" width="100" height="40" as="geometry" />
        </mxCell>
        <mxCell id="rovdvrnVcOGYkZz0sEue-38" value="Prijava/odjava na sistem" style="ellipse;whiteSpace=wrap;html=1;" parent="1" vertex="1">
          <mxGeometry x="261" y="325" width="90" height="50" as="geometry" />
        </mxCell>
        <mxCell id="rovdvrnVcOGYkZz0sEue-39" value="Odredjivanje plata" style="ellipse;whiteSpace=wrap;html=1;" parent="1" vertex="1">
          <mxGeometry x="501" y="180" width="90" height="50" as="geometry" />
        </mxCell>
        <mxCell id="rovdvrnVcOGYkZz0sEue-44" value="Potvrdi novi jelovnik/picovnik" style="ellipse;whiteSpace=wrap;html=1;" parent="1" vertex="1">
          <mxGeometry x="491" y="120" width="110" height="50" as="geometry" />
        </mxCell>
        <mxCell id="rovdvrnVcOGYkZz0sEue-58" style="edgeStyle=orthogonalEdgeStyle;rounded=0;orthogonalLoop=1;jettySize=auto;html=1;exitX=0.5;exitY=1;exitDx=0;exitDy=0;entryX=0.205;entryY=0.014;entryDx=0;entryDy=0;entryPerimeter=0;endArrow=none;endFill=0;dashed=1;" parent="1" source="rovdvrnVcOGYkZz0sEue-50" target="rovdvrnVcOGYkZz0sEue-57" edge="1">
          <mxGeometry relative="1" as="geometry" />
        </mxCell>
        <mxCell id="rovdvrnVcOGYkZz0sEue-50" value="Izvestaj i prikaz finansija" style="ellipse;whiteSpace=wrap;html=1;" parent="1" vertex="1">
          <mxGeometry x="501" y="280" width="100" height="60" as="geometry" />
        </mxCell>
        <mxCell id="rovdvrnVcOGYkZz0sEue-57" value="Finansije sadrze izvestaje: zarada restorana, plata zaposlenih, troskova nabavke u izabranom vremenskom periodu" style="shape=note;whiteSpace=wrap;html=1;backgroundOutline=1;darkOpacity=0.05;size=12;" parent="1" vertex="1">
          <mxGeometry x="512" y="360" width="200" height="70" as="geometry" />
        </mxCell>
        <mxCell id="rovdvrnVcOGYkZz0sEue-61" style="edgeStyle=orthogonalEdgeStyle;rounded=0;orthogonalLoop=1;jettySize=auto;html=1;exitX=0.5;exitY=0.5;exitDx=0;exitDy=0;exitPerimeter=0;entryX=0;entryY=0.5;entryDx=0;entryDy=0;endArrow=classic;endFill=1;" parent="1" source="rovdvrnVcOGYkZz0sEue-59" target="rovdvrnVcOGYkZz0sEue-60" edge="1">
          <mxGeometry relative="1" as="geometry" />
        </mxCell>
        <mxCell id="rovdvrnVcOGYkZz0sEue-59" value="Sistemski sat" style="shape=umlActor;verticalLabelPosition=bottom;verticalAlign=top;html=1;outlineConnect=0;" parent="1" vertex="1">
          <mxGeometry x="440" y="580" width="30" height="60" as="geometry" />
        </mxCell>
        <mxCell id="rovdvrnVcOGYkZz0sEue-60" value="Slanje notifikacija" style="ellipse;whiteSpace=wrap;html=1;" parent="1" vertex="1">
          <mxGeometry x="530" y="585" width="110" height="50" as="geometry" />
        </mxCell>
        <mxCell id="rovdvrnVcOGYkZz0sEue-62" value="U notifikacije spada obavestenje sankeru i kuvaru o novoj porudzbini, odnosno obavestenje konobaru o pripremljenoj porudzbini" style="shape=note;whiteSpace=wrap;html=1;backgroundOutline=1;darkOpacity=0.05;size=12;" parent="1" vertex="1">
          <mxGeometry x="498" y="500" width="174" height="70" as="geometry" />
        </mxCell>
        <mxCell id="rovdvrnVcOGYkZz0sEue-63" value="" style="endArrow=none;dashed=1;html=1;rounded=0;entryX=0.5;entryY=1;entryDx=0;entryDy=0;entryPerimeter=0;exitX=0.5;exitY=0;exitDx=0;exitDy=0;" parent="1" source="rovdvrnVcOGYkZz0sEue-60" target="rovdvrnVcOGYkZz0sEue-62" edge="1">
          <mxGeometry width="50" height="50" relative="1" as="geometry">
            <mxPoint x="620" y="670" as="sourcePoint" />
            <mxPoint x="670" y="620" as="targetPoint" />
          </mxGeometry>
        </mxCell>
        <mxCell id="rb_3qHRuBO5IrLHfp7AS-2" value="Uredjivanje layout-a restorana" style="ellipse;whiteSpace=wrap;html=1;" vertex="1" parent="1">
          <mxGeometry x="231" y="100" width="120" height="50" as="geometry" />
        </mxCell>
      </root>
    </mxGraphModel>
  </diagram>
</mxfile>
